<svg width="34" height="31" viewBox="0 0 34 31" fill="none" xmlns="http://www.w3.org/2000/svg">
<path d="M16.9598 29.4189C20.9656 29.4189 21.0324 29.2545 23.5247 28.9329C25.8107 28.2725 27.9168 27.8016 28.9791 26.7345C29.9618 25.7455 30.7168 24.5695 31.1952 23.2826C31.6736 21.9958 31.8646 20.6268 31.756 19.2645C31.756 17.6999 30.9614 15.3891 30.9614 14.7713C30.9614 14.1535 34.1398 1.63672 30.3424 1.63672C27.5906 1.63672 21.5684 8.19199 21.5684 8.19199C20.1845 7.34985 18.5966 7.52187 16.9598 7.44364C15.3171 7.51912 13.7232 7.34721 12.3344 8.19199C12.3344 8.19199 6.31217 1.63672 3.57708 1.63672C-0.203522 1.63672 2.97486 14.1696 2.97486 14.7874C2.97486 15.4052 2.13845 17.716 2.13845 19.2806C2.03309 20.6446 2.22813 22.0146 2.71087 23.3016C3.19362 24.5885 3.95326 25.7636 4.94044 26.7505C6.00269 27.8177 7.78655 28.583 10.1584 28.9329C12.5302 29.2829 13.9403 29.4189 16.9598 29.4189Z" stroke="white" stroke-width="3" stroke-linecap="round" stroke-linejoin="round"/>
</svg>
